<svg width="193" height="193" viewBox="0 0 193 193" fill="none" xmlns="http://www.w3.org/2000/svg">
<path d="M91.7369 121.893L138.625 168.781C146.952 177.109 160.454 177.109 168.781 168.781C177.109 160.454 177.109 146.952 168.781 138.625L121.523 91.3664M91.7369 121.893L110.43 99.1949C111.348 98.0798 112.359 97.0453 113.503 96.1633C115.545 94.5899 119.013 92.1148 121.523 91.3664M91.7369 121.893L54.3027 167.349C50.4109 172.075 44.6096 174.812 38.4876 174.812C27.1726 174.812 18 165.64 18 154.325C18 148.203 20.7377 142.402 25.4635 138.51L80.4405 93.2347M121.523 91.3664C125.941 90.0488 130.871 89.8507 135.536 90.245C136.554 90.3311 137.585 90.375 138.625 90.375C158.611 90.375 174.812 74.1733 174.812 54.1875C174.812 48.8778 173.669 43.8353 171.615 39.2926L145.269 65.6386C136.297 63.579 129.235 56.5166 127.175 47.5448L153.521 21.1985C148.978 19.1438 143.935 18 138.625 18C118.639 18 102.438 34.2017 102.438 54.1875C102.438 55.228 102.481 56.2582 102.567 57.2764C103.299 65.9248 101.993 75.4851 95.2937 81.0026L94.4728 81.6786M80.4405 93.2347L47.4245 60.2188H36.0938L18 30.0625L30.0625 18L60.2188 36.0938V47.4245L94.4728 81.6786M80.4405 93.2347L94.4728 81.6786" stroke="white" stroke-width="10" stroke-linecap="round" stroke-linejoin="round"/>
</svg>
