<svg width="193" height="189" viewBox="0 0 193 189" fill="none" xmlns="http://www.w3.org/2000/svg">
<path d="M118.215 49.6129C116.742 51.0849 115.917 53.0641 115.917 55.1254C115.917 57.1867 116.742 59.1658 118.215 60.6379L131.082 73.2379C132.585 74.6808 134.606 75.489 136.711 75.489C138.816 75.489 140.837 74.6808 142.34 73.2379L172.657 43.5491C176.701 52.2997 177.925 62.0493 176.167 71.4986C174.409 80.9479 169.752 89.6482 162.817 96.4398C155.881 103.231 146.997 107.792 137.348 109.514C127.698 111.235 117.742 110.036 108.807 106.077L53.2386 160.493C50.0395 163.626 45.7005 165.386 41.1761 165.386C36.6518 165.386 32.3128 163.626 29.1136 160.493C25.9145 157.36 24.1172 153.111 24.1172 148.68C24.1172 144.25 25.9145 140.001 29.1136 136.868L84.6816 82.4516C80.6379 73.701 79.4136 63.9514 81.1717 54.5021C82.9298 45.0528 87.5869 36.3526 94.5223 29.5609C101.458 22.7692 110.342 18.2087 119.991 16.487C129.641 14.7653 139.597 15.9643 148.532 19.9241L118.296 49.5341L118.215 49.6129Z" stroke="white" stroke-width="10" stroke-linecap="round" stroke-linejoin="round"/>
<path d="M118.215 49.6129C116.742 51.0849 115.917 53.0641 115.917 55.1254C115.917 57.1867 116.742 59.1658 118.215 60.6379L131.082 73.2379C132.585 74.6808 134.606 75.489 136.711 75.489C138.816 75.489 140.837 74.6808 142.34 73.2379L172.657 43.5491C176.701 52.2997 177.925 62.0493 176.167 71.4986C174.409 80.9479 169.752 89.6482 162.817 96.4398C155.881 103.231 146.997 107.792 137.348 109.514C127.698 111.235 117.742 110.036 108.807 106.077L53.2386 160.493C50.0395 163.626 45.7005 165.386 41.1761 165.386C36.6518 165.386 32.3128 163.626 29.1136 160.493C25.9145 157.36 24.1172 153.111 24.1172 148.68C24.1172 144.25 25.9145 140.001 29.1136 136.868L84.6816 82.4516C80.6379 73.701 79.4136 63.9514 81.1717 54.5021C82.9298 45.0528 87.5869 36.3526 94.5223 29.5609C101.458 22.7692 110.342 18.2087 119.991 16.487C129.641 14.7653 139.597 15.9643 148.532 19.9241L118.296 49.5341L118.215 49.6129Z" stroke="white" stroke-width="10" stroke-linecap="round" stroke-linejoin="round"/>
</svg>
