<svg width="193" height="193" viewBox="0 0 193 193" fill="none" xmlns="http://www.w3.org/2000/svg">
<path d="M96.5 120.625C109.824 120.625 120.625 109.824 120.625 96.5C120.625 83.1761 109.824 72.375 96.5 72.375C83.1761 72.375 72.375 83.1761 72.375 96.5C72.375 109.824 83.1761 120.625 96.5 120.625Z" stroke="white" stroke-width="10" stroke-linecap="round" stroke-linejoin="round"/>
<path d="M156.006 120.625C154.935 123.051 154.616 125.741 155.089 128.35C155.562 130.959 156.806 133.366 158.659 135.261L159.142 135.744C160.637 137.237 161.824 139.011 162.633 140.964C163.442 142.916 163.859 145.009 163.859 147.123C163.859 149.236 163.442 151.329 162.633 153.282C161.824 155.234 160.637 157.008 159.142 158.502C157.648 159.997 155.874 161.183 153.922 161.993C151.969 162.802 149.877 163.219 147.763 163.219C145.649 163.219 143.557 162.802 141.604 161.993C139.652 161.183 137.878 159.997 136.384 158.502L135.902 158.019C134.006 156.165 131.599 154.922 128.99 154.449C126.382 153.976 123.691 154.295 121.266 155.365C118.887 156.385 116.859 158.077 115.43 160.235C114.001 162.392 113.234 164.921 113.224 167.508V168.875C113.224 173.141 111.53 177.232 108.513 180.248C105.497 183.264 101.406 184.959 97.1407 184.959C92.8752 184.959 88.7843 183.264 85.7681 180.248C82.7519 177.232 81.0574 173.141 81.0574 168.875V168.152C80.9951 165.49 80.1336 162.908 78.5847 160.743C77.0358 158.577 74.8712 156.928 72.3724 156.009C69.9469 154.938 67.2563 154.619 64.6477 155.092C62.039 155.565 59.6318 156.809 57.7366 158.662L57.2541 159.145C55.7604 160.64 53.9865 161.827 52.0341 162.636C50.0816 163.445 47.9887 163.862 45.8751 163.862C43.7615 163.862 41.6686 163.445 39.7161 162.636C37.7637 161.827 35.9899 160.64 34.4961 159.145C33.0008 157.651 31.8145 155.877 31.0051 153.925C30.1957 151.972 29.7791 149.88 29.7791 147.766C29.7791 145.652 30.1957 143.559 31.0051 141.607C31.8145 139.655 33.0008 137.881 34.4961 136.387L34.9786 135.904C36.8325 134.009 38.0762 131.602 38.5492 128.993C39.0222 126.385 38.7029 123.694 37.6324 121.269C36.613 118.89 34.9204 116.862 32.7629 115.433C30.6054 114.004 28.0772 113.237 25.4895 113.227H24.1224C19.8568 113.227 15.766 111.533 12.7498 108.516C9.73355 105.5 8.03906 101.409 8.03906 97.1437C8.03906 92.8781 9.73355 88.7872 12.7498 85.771C15.766 82.7548 19.8568 81.0603 24.1224 81.0603H24.8461C27.5079 80.9981 30.0894 80.1365 32.2549 78.5876C34.4205 77.0387 36.07 74.8742 36.9891 72.3753C38.0595 69.9498 38.3789 67.2593 37.9059 64.6506C37.4328 62.0419 36.1892 59.6347 34.3353 57.7395L33.8528 57.257C32.3574 55.7633 31.1712 53.9895 30.3618 52.037C29.5524 50.0845 29.1358 47.9916 29.1358 45.878C29.1358 43.7644 29.5524 41.6716 30.3618 39.7191C31.1712 37.7666 32.3574 35.9928 33.8528 34.4991C35.3465 33.0037 37.1203 31.8174 39.0728 31.008C41.0253 30.1986 43.1182 29.782 45.2318 29.782C47.3454 29.782 49.4382 30.1986 51.3907 31.008C53.3432 31.8174 55.117 33.0037 56.6107 34.4991L57.0932 34.9816C58.9885 36.8355 61.3957 38.0791 64.0043 38.5521C66.613 39.0251 69.3036 38.7058 71.7291 37.6353H72.3724C74.7509 36.6159 76.7794 34.9233 78.2082 32.7658C79.637 30.6083 80.4037 28.0801 80.4141 25.4924V24.1253C80.4141 19.8598 82.1086 15.7689 85.1248 12.7527C88.141 9.73648 92.2318 8.04199 96.4974 8.04199C100.763 8.04199 104.854 9.73648 107.87 12.7527C110.886 15.7689 112.581 19.8598 112.581 24.1253V24.8491C112.591 27.4368 113.358 29.965 114.787 32.1225C116.215 34.28 118.244 35.9726 120.622 36.992C123.048 38.0625 125.738 38.3818 128.347 37.9088C130.956 37.4358 133.363 36.1921 135.258 34.3382L135.741 33.8557C137.234 32.3604 139.008 31.1741 140.961 30.3647C142.913 29.5553 145.006 29.1387 147.12 29.1387C149.233 29.1387 151.326 29.5553 153.279 30.3647C155.231 31.1741 157.005 32.3604 158.499 33.8557C159.994 35.3495 161.18 37.1233 161.99 39.0757C162.799 41.0282 163.216 43.1211 163.216 45.2347C163.216 47.3483 162.799 49.4412 161.99 51.3937C161.18 53.3461 159.994 55.12 158.499 56.6137L158.016 57.0962C156.162 58.9914 154.919 61.3986 154.446 64.0073C153.973 66.6159 154.292 69.3065 155.362 71.732V72.3753C156.382 74.7538 158.074 76.7823 160.232 78.2111C162.389 79.6399 164.918 80.4067 167.505 80.417H168.872C173.138 80.417 177.229 82.1115 180.245 85.1277C183.261 88.1439 184.956 92.2348 184.956 96.5003C184.956 100.766 183.261 104.857 180.245 107.873C177.229 110.889 173.138 112.584 168.872 112.584H168.149C165.561 112.594 163.033 113.361 160.875 114.79C158.718 116.218 157.025 118.247 156.006 120.625V120.625Z" stroke="white" stroke-width="10" stroke-linecap="round" stroke-linejoin="round"/>
</svg>
