<svg width="193" height="193" viewBox="0 0 193 193" fill="none" xmlns="http://www.w3.org/2000/svg">
<path d="M72.375 144.75V40.2083L168.875 24.125V128.667" stroke="white" stroke-width="10" stroke-linecap="round" stroke-linejoin="round"/>
<path d="M48.25 168.875C61.5739 168.875 72.375 158.074 72.375 144.75C72.375 131.426 61.5739 120.625 48.25 120.625C34.9261 120.625 24.125 131.426 24.125 144.75C24.125 158.074 34.9261 168.875 48.25 168.875Z" stroke="white" stroke-width="10" stroke-linecap="round" stroke-linejoin="round"/>
<path d="M144.75 152.792C158.074 152.792 168.875 141.991 168.875 128.667C168.875 115.343 158.074 104.542 144.75 104.542C131.426 104.542 120.625 115.343 120.625 128.667C120.625 141.991 131.426 152.792 144.75 152.792Z" stroke="white" stroke-width="10" stroke-linecap="round" stroke-linejoin="round"/>
</svg>
